<svg width="32" height="32" viewBox="0 0 32 32" xmlns="http://www.w3.org/2000/svg"><title>dribbble</title><path d="M16 32C7.178 32 0 24.822 0 16S7.178 0 16 0c8.824 0 16 7.178 16 16s-7.176 16-16 16zm13.494-13.81c-.467-.147-4.23-1.27-8.512-.584 1.787 4.912 2.514 8.913 2.654 9.744a13.685 13.685 0 0 0 5.858-9.16zM21.34 28.6c-.204-1.198-.998-5.377-2.917-10.363l-.09.03c-7.71 2.687-10.475 8.033-10.72 8.535A13.597 13.597 0 0 0 16 29.687c1.894 0 3.7-.387 5.34-1.086zM5.846 25.16c.31-.53 4.06-6.742 11.11-9.02.177-.058.357-.112.537-.163a44.556 44.556 0 0 0-1.108-2.32C9.562 15.702 2.94 15.617 2.34 15.604a13.612 13.612 0 0 0 3.506 9.556zM2.622 13.22c.612.008 6.243.032 12.635-1.666A87.463 87.463 0 0 0 10.19 3.65a13.72 13.72 0 0 0-7.567 9.57zM12.798 2.734a73.12 73.12 0 0 1 5.1 8c4.86-1.82 6.916-4.586 7.162-4.936A13.613 13.613 0 0 0 16 2.354a13.69 13.69 0 0 0-3.202.38zM26.58 7.378c-.29.39-2.58 3.326-7.632 5.39a42.013 42.013 0 0 1 1.2 2.684c4.548-.572 9.065.344 9.517.44a13.612 13.612 0 0 0-3.086-8.514z" fill-rule="evenodd"/></svg>