<svg width="32" height="32" viewBox="0 0 32 32" xmlns="http://www.w3.org/2000/svg"><title>github</title><path d="M16 0C7.165 0 0 7.163 0 16c0 8.836 7.165 16 16 16 8.836 0 16-7.164 16-16 0-8.837-7.164-16-16-16zm9.502 25.502a13.4 13.4 0 0 1-5.51 3.333v-2.397c0-1.26-.432-2.188-1.296-2.78.54-.054 1.04-.126 1.492-.22.453-.094.93-.23 1.437-.406.505-.178.958-.39 1.36-.633a5.73 5.73 0 0 0 1.156-.956c.37-.39.68-.834.93-1.328.25-.495.45-1.09.596-1.782.146-.693.22-1.456.22-2.29 0-1.614-.527-2.99-1.58-4.124.48-1.25.428-2.61-.155-4.077l-.39-.047c-.27-.03-.76.083-1.46.344-.705.26-1.494.69-2.37 1.282a14.406 14.406 0 0 0-3.86-.515c-1.342 0-2.623.172-3.842.515a13.4 13.4 0 0 0-1.57-.93c-.496-.245-.89-.412-1.188-.5a4.064 4.064 0 0 0-.83-.164 2.825 2.825 0 0 0-.49-.015.887.887 0 0 0-.158.03c-.584 1.48-.636 2.84-.157 4.08-1.052 1.134-1.578 2.51-1.578 4.124 0 .833.072 1.596.22 2.29.144.692.343 1.286.593 1.78.25.495.56.938.93 1.33.37.39.755.707 1.157.952.4.24.853.452 1.36.63.504.176.983.312 1.437.406.453.094.95.166 1.492.22-.855.582-1.282 1.508-1.282 2.78v2.444a13.392 13.392 0 0 1-5.666-3.38A13.412 13.412 0 0 1 2.564 16 13.396 13.396 0 0 1 6.5 6.498a13.357 13.357 0 0 1 4.272-2.88A13.33 13.33 0 0 1 16 2.563c1.816 0 3.575.354 5.23 1.055 1.6.675 3.037 1.645 4.272 2.88A13.383 13.383 0 0 1 29.438 16a13.398 13.398 0 0 1-3.936 9.502z" fill-rule="evenodd"/></svg>