<svg width="32" height="32" viewBox="0 0 32 32" xmlns="http://www.w3.org/2000/svg"><title>instagram</title><path d="M28 0H4a4 4 0 0 0-4 4v24c0 2.207 1.792 4 4 4h24c2.208 0 4-1.793 4-4V4a4 4 0 0 0-4-4zM16 12c3.685 0 4 4 4 4s.12 4-4 4c-4.116 0-4-4-4-4s.316-4 4-4zm12 14c0 1.106-.893 2-2 2H6c-1.106 0-2-.894-2-2V16a2 2 0 0 1 2-2h2.285C8.117 14.643 8 15.305 8 16a8 8 0 0 0 16 0c0-.695-.118-1.357-.284-2H26c1.107 0 2 .895 2 2v10zm0-18a2 2 0 0 1-2 2h-2a2 2 0 0 1-2-2V6a2 2 0 0 1 2-2h2a2 2 0 0 1 2 2v2z" fill-rule="evenodd"/></svg>
