<svg width="32" height="32" viewBox="0 0 32 32" xmlns="http://www.w3.org/2000/svg"><title>linkedin</title><path d="M3.047 0h25.9A3.048 3.048 0 0 1 32 3.047v25.905A3.05 3.05 0 0 1 28.946 32h-25.9A3.046 3.046 0 0 1 0 28.952V3.047A3.045 3.045 0 0 1 3.047 0m2.047 25.938H9.67V12.17H5.094v13.768zm2.03-15.217c1.408 0 2.287-1.026 2.287-2.31C9.39 7.1 8.535 6.1 7.15 6.1c-1.385 0-2.29 1-2.29 2.313 0 1.283.877 2.31 2.236 2.31h.03zm5.523 15.22h4.657v-7.504c0-.404.03-.807.14-1.092.332-.804 1.078-1.636 2.315-1.636 1.64 0 2.144 1.234 2.144 3.042v7.19h4.506v-7.706c0-4.127-2.075-6.434-5.043-6.434-2.435 0-3.5 1.353-4.094 2.265h.03V12.12h-4.657c.06 1.257 0 13.818 0 13.818z" fill-rule="evenodd"/></svg>
