<svg width="32" height="32" viewBox="0 0 32 32" xmlns="http://www.w3.org/2000/svg"><title>twitter</title><path d="M32 6.08a13.09 13.09 0 0 1-3.77 1.032 6.59 6.59 0 0 0 2.887-3.63 13.17 13.17 0 0 1-4.17 1.59A6.553 6.553 0 0 0 22.157 3a6.566 6.566 0 0 0-6.567 6.565c0 .515.058 1.016.17 1.497a18.644 18.644 0 0 1-13.532-6.86 6.542 6.542 0 0 0-.89 3.3 6.563 6.563 0 0 0 2.92 5.465 6.532 6.532 0 0 1-2.972-.82v.08a6.57 6.57 0 0 0 5.266 6.44 6.618 6.618 0 0 1-2.965.11 6.57 6.57 0 0 0 6.133 4.56 13.173 13.173 0 0 1-8.153 2.81c-.53 0-1.053-.03-1.567-.09a18.584 18.584 0 0 0 10.064 2.95c12.076 0 18.68-10.005 18.68-18.68 0-.286-.006-.568-.02-.85A13.33 13.33 0 0 0 32 6.08" fill-rule="evenodd"/></svg>
