<?xml version="1.0" encoding="UTF-8" standalone="no"?><svg xmlns="http://www.w3.org/2000/svg" xmlns:xlink="http://www.w3.org/1999/xlink"><symbol viewBox="0 0 32 32" id="dribbble"><title>dribbble</title><desc>Created with Sketch.</desc><g fill="none" fill-rule="evenodd"><g transform="translate(-160)" fill="#888"><path d="M176 32c-8.822 0-16-7.178-16-16s7.178-16 16-16c8.824 0 16 7.178 16 16s-7.176 16-16 16zm13.494-13.81c-.467-.147-4.23-1.27-8.512-.584 1.787 4.912 2.514 8.913 2.654 9.744 3.067-2.073 5.25-5.357 5.858-9.16zM181.34 28.6c-.204-1.198-.998-5.377-2.917-10.363l-.09.03c-7.71 2.687-10.475 8.033-10.72 8.535 2.316 1.807 5.228 2.885 8.387 2.885 1.894 0 3.7-.387 5.34-1.086zm-15.493-3.44c.31-.53 4.06-6.742 11.11-9.02.177-.058.357-.112.537-.163-.342-.776-.716-1.553-1.108-2.32-6.824 2.044-13.447 1.96-14.045 1.946-.003.14-.007.278-.007.418 0 3.51 1.33 6.716 3.514 9.14zm-3.225-11.938c.612.008 6.243.032 12.635-1.666-2.264-4.025-4.707-7.41-5.066-7.903-3.823 1.803-6.68 5.328-7.568 9.57zm10.176-10.488c.377.506 2.86 3.886 5.1 8 4.86-1.82 6.916-4.586 7.162-4.936-2.414-2.14-5.587-3.444-9.06-3.444-1.102 0-2.174.133-3.202.38zm13.782 4.644c-.29.39-2.58 3.326-7.632 5.39.318.65.623 1.312.907 1.978.1.237.198.472.294.706 4.547-.572 9.064.344 9.516.44-.03-3.226-1.183-6.188-3.086-8.514z"/></g></g></symbol><symbol viewBox="0 0 32 32" id="github"><title>github</title><desc>Created with Sketch.</desc><g fill="none" fill-rule="evenodd"><g transform="translate(-320)" fill="#888"><path d="M336 0c-8.835 0-16 7.163-16 16 0 8.836 7.165 16 16 16 8.836 0 16-7.164 16-16 0-8.837-7.164-16-16-16zm9.502 25.502c-1.235 1.235-2.672 2.204-4.272 2.88-.406.173-.82.323-1.237.453v-2.397c0-1.26-.433-2.188-1.297-2.78.54-.054 1.04-.126 1.492-.22.453-.094.93-.23 1.437-.406.505-.178.958-.39 1.36-.633.4-.246.786-.564 1.156-.954.37-.39.68-.834.93-1.328.25-.495.448-1.09.594-1.782.146-.693.22-1.456.22-2.29 0-1.614-.527-2.99-1.58-4.124.48-1.25.428-2.61-.155-4.078l-.392-.047c-.27-.03-.758.083-1.46.344-.704.26-1.493.69-2.368 1.282-1.24-.343-2.526-.515-3.86-.515-1.343 0-2.624.172-3.843.515-.553-.375-1.076-.685-1.57-.93-.496-.245-.89-.412-1.188-.5-.298-.088-.574-.143-.83-.164-.255-.02-.42-.026-.49-.015-.074.01-.126.02-.157.03-.584 1.48-.636 2.84-.157 4.08-1.052 1.134-1.578 2.51-1.578 4.124 0 .833.072 1.596.22 2.29.144.692.343 1.286.593 1.78.25.495.56.938.93 1.33.37.39.755.707 1.157.952.4.243.853.454 1.36.632.504.176.983.312 1.437.406.453.094.95.166 1.492.22-.855.582-1.282 1.508-1.282 2.78v2.444c-.47-.14-.937-.306-1.393-.5-1.6-.676-3.037-1.645-4.272-2.88-1.234-1.236-2.204-2.673-2.88-4.273-.7-1.655-1.055-3.415-1.055-5.23 0-1.816.355-3.575 1.055-5.23.676-1.6 1.646-3.037 2.88-4.272 1.235-1.235 2.672-2.205 4.273-2.88 1.656-.7 3.415-1.055 5.23-1.055 1.816 0 3.575.354 5.23 1.055 1.6.675 3.037 1.645 4.272 2.88 1.235 1.235 2.205 2.672 2.88 4.272.7 1.655 1.056 3.414 1.056 5.23 0 1.815-.356 3.575-1.055 5.23-.676 1.6-1.646 3.036-2.88 4.272z"/></g></g></symbol><symbol viewBox="0 0 32 32" id="instagram"><title>instagram</title><desc>Created with Sketch.</desc><g fill="none" fill-rule="evenodd"><g fill="#888"><path d="M28 0H4C1.792 0 0 1.79 0 4v24c0 2.207 1.792 4 4 4h24c2.208 0 4-1.793 4-4V4c0-2.21-1.792-4-4-4zM16 12c3.685 0 4 4 4 4s.12 4-4 4c-4.116 0-4-4-4-4s.316-4 4-4zm12 14c0 1.106-.893 2-2 2H6c-1.106 0-2-.894-2-2V16c0-1.105.894-2 2-2h2.285C8.117 14.643 8 15.305 8 16c0 4.418 3.582 8 8 8s8-3.582 8-8c0-.695-.118-1.357-.284-2H26c1.107 0 2 .895 2 2v10zm0-18c0 1.104-.893 2-2 2h-2c-1.104 0-2-.896-2-2V6c0-1.103.896-2 2-2h2c1.107 0 2 .897 2 2v2z"/></g></g></symbol><symbol viewBox="0 0 32 32" id="linkedin"><title>linkedin</title><desc>Created with Sketch.</desc><g fill="none" fill-rule="evenodd"><g transform="translate(-239)" fill="#888"><path d="M242.047 0h25.9C269.632 0 271 1.362 271 3.047v25.905c0 1.685-1.368 3.048-3.053 3.048h-25.9c-1.683 0-3.047-1.363-3.047-3.048V3.047C239 1.362 240.364 0 242.047 0m2.047 25.938h4.576V12.17h-4.576v13.768zm2.03-15.217c1.408 0 2.287-1.028 2.287-2.31-.022-1.314-.878-2.314-2.26-2.314-1.387 0-2.292 1-2.292 2.313 0 1.282.877 2.31 2.236 2.31h.03zm5.523 15.218h4.657v-7.504c0-.404.03-.807.14-1.092.332-.804 1.078-1.636 2.315-1.636 1.64 0 2.146 1.234 2.146 3.042v7.19h4.506v-7.705c0-4.127-2.076-6.434-5.044-6.434-2.435 0-3.5 1.353-4.094 2.265h.03V12.12h-4.657c.06 1.257 0 13.818 0 13.818z"/></g></g></symbol><symbol viewBox="0 0 32 32" id="twitter"><title>twitter</title><desc>Created with Sketch.</desc><g fill="none" fill-rule="evenodd"><g transform="translate(-80)" fill="#888"><path d="M112 6.08c-1.176.52-2.442.874-3.77 1.032 1.355-.812 2.396-2.1 2.887-3.63-1.27.75-2.674 1.297-4.17 1.59C105.75 3.798 104.044 3 102.157 3 98.53 3 95.59 5.94 95.59 9.565c0 .515.058 1.016.17 1.497-5.456-.275-10.294-2.888-13.532-6.86-.564.97-.89 2.097-.89 3.3 0 2.278 1.16 4.288 2.92 5.465-1.075-.034-2.087-.33-2.972-.82v.08c0 3.182 2.262 5.835 5.266 6.44-.55.148-1.13.23-1.73.23-.422 0-.834-.042-1.235-.12.836 2.61 3.26 4.508 6.133 4.56-2.247 1.76-5.078 2.81-8.153 2.81-.53 0-1.053-.03-1.567-.09 2.906 1.862 6.357 2.95 10.064 2.95 12.076 0 18.68-10.005 18.68-18.68 0-.286-.006-.568-.02-.85 1.283-.926 2.397-2.082 3.276-3.398"/></g></g></symbol></svg>