<svg width="24" height="18" viewBox="0 0 24 18" fill="#9662fd" xmlns="http://www.w3.org/2000/svg">
<path d="M23.495 3.20522C23.3559 2.70699 23.0907 2.25305 22.7249 1.88727C22.3592 1.5215 21.9052 1.25628 21.407 1.11723C19.537 0.616225 12.011 0.616225 12.011 0.616225C12.011 0.616225 4.50398 0.606225 2.61498 1.11723C2.11674 1.25628 1.6628 1.5215 1.29703 1.88727C0.931256 2.25305 0.666028 2.70699 0.526977 3.20522C0.172497 5.11974 -0.00226272 7.06319 0.00497673 9.01023C-0.000894134 10.9499 0.17386 12.8859 0.526977 14.7932C0.666028 15.2915 0.931256 15.7454 1.29703 16.1112C1.6628 16.4769 2.11674 16.7422 2.61498 16.8812C4.48298 17.3832 12.011 17.3832 12.011 17.3832C12.011 17.3832 19.517 17.3832 21.407 16.8812C21.9052 16.7422 22.3592 16.4769 22.7249 16.1112C23.0907 15.7454 23.3559 15.2915 23.495 14.7932C23.8407 12.8852 24.0081 10.9492 23.995 9.01023C24.0095 7.06388 23.8421 5.12043 23.495 3.20522V3.20522ZM9.60898 12.6012V5.40823L15.873 9.01023L9.60898 12.6012Z"/>
</svg>
