<?xml version="1.0" encoding="UTF-8" standalone="no"?>
<svg width="32px" height="32px" viewBox="0 0 32 32" version="1.1" xmlns="http://www.w3.org/2000/svg" xmlns:xlink="http://www.w3.org/1999/xlink" xmlns:sketch="http://www.bohemiancoding.com/sketch/ns">
    <!-- Generator: Sketch 3.2.2 (9983) - http://www.bohemiancoding.com/sketch -->
    <title>dribbble</title>
    <desc>Created with Sketch.</desc>
    <defs></defs>
    <g id="Page-1" stroke="none" stroke-width="1" fill="none" fill-rule="evenodd" sketch:type="MSPage">
        <g id="icons" sketch:type="MSArtboardGroup" transform="translate(-160.000000, 0.000000)" fill="#888888">
            <path d="M176,32 C167.178,32 160,24.822 160,16 C160,7.178 167.178,0 176,0 C184.824,0 192,7.178 192,16 C192,24.822 184.824,32 176,32 L176,32 Z M189.494,18.19 C189.027,18.043 185.264,16.92 180.982,17.606 C182.769,22.518 183.496,26.519 183.636,27.35 C186.703,25.277 188.885,21.993 189.494,18.19 L189.494,18.19 Z M181.339,28.601 C181.136,27.402 180.342,23.223 178.423,18.237 C178.394,18.247 178.363,18.257 178.334,18.267 C170.624,20.954 167.858,26.3 167.612,26.802 C169.929,28.609 172.841,29.687 176,29.687 C177.894,29.687 179.699,29.3 181.339,28.601 L181.339,28.601 Z M165.847,25.159 C166.157,24.629 169.908,18.418 176.957,16.14 C177.134,16.082 177.314,16.028 177.494,15.977 C177.152,15.201 176.778,14.424 176.386,13.658 C169.562,15.701 162.939,15.616 162.341,15.603 C162.337,15.742 162.333,15.881 162.333,16.021 C162.333,19.531 163.664,22.736 165.847,25.159 L165.847,25.159 Z M162.622,13.222 C163.234,13.23 168.865,13.254 175.257,11.556 C172.993,7.531 170.55,4.147 170.191,3.653 C166.367,5.456 163.509,8.981 162.622,13.222 L162.622,13.222 Z M172.798,2.734 C173.175,3.24 175.658,6.62 177.898,10.735 C182.757,8.913 184.814,6.148 185.06,5.798 C182.646,3.657 179.473,2.354 176,2.354 C174.898,2.354 173.826,2.487 172.798,2.734 L172.798,2.734 Z M186.58,7.378 C186.291,7.769 184.001,10.704 178.948,12.767 C179.266,13.418 179.571,14.08 179.855,14.746 C179.954,14.983 180.053,15.218 180.149,15.452 C184.697,14.88 189.214,15.796 189.666,15.892 C189.635,12.666 188.483,9.704 186.58,7.378 L186.58,7.378 Z" id="dribbble" sketch:type="MSShapeGroup"></path>
        </g>
    </g>
</svg>