<?xml version="1.0" encoding="UTF-8" standalone="no"?>
<svg width="32px" height="32px" viewBox="0 0 32 32" version="1.1" xmlns="http://www.w3.org/2000/svg" xmlns:xlink="http://www.w3.org/1999/xlink" xmlns:sketch="http://www.bohemiancoding.com/sketch/ns">
    <!-- Generator: Sketch 3.2.2 (9983) - http://www.bohemiancoding.com/sketch -->
    <title>github</title>
    <desc>Created with Sketch.</desc>
    <defs></defs>
    <g id="Page-1" stroke="none" stroke-width="1" fill="none" fill-rule="evenodd" sketch:type="MSPage">
        <g id="icons" sketch:type="MSArtboardGroup" transform="translate(-320.000000, 0.000000)" fill="#888888">
            <path d="M336,0 C327.165,0 320,7.163 320,16 C320,24.836 327.165,32 336,32 C344.836,32 352,24.836 352,16 C352,7.163 344.836,0 336,0 L336,0 Z M345.502,25.502 C344.267,26.737 342.83,27.706 341.23,28.383 C340.824,28.555 340.41,28.705 339.993,28.835 L339.993,26.438 C339.993,25.177 339.56,24.25 338.696,23.657 C339.237,23.604 339.735,23.532 340.188,23.438 C340.641,23.344 341.119,23.208 341.625,23.032 C342.13,22.854 342.583,22.643 342.985,22.399 C343.385,22.154 343.771,21.836 344.141,21.446 C344.51,21.055 344.821,20.612 345.071,20.118 C345.321,19.623 345.518,19.029 345.664,18.336 C345.81,17.643 345.883,16.88 345.883,16.047 C345.883,14.432 345.357,13.057 344.305,11.922 C344.784,10.672 344.732,9.313 344.149,7.844 L343.758,7.797 C343.487,7.766 343,7.88 342.297,8.141 C341.594,8.401 340.805,8.829 339.93,9.422 C338.69,9.079 337.404,8.907 336.071,8.907 C334.727,8.907 333.446,9.079 332.227,9.422 C331.674,9.047 331.151,8.737 330.657,8.493 C330.161,8.247 329.766,8.08 329.469,7.993 C329.172,7.904 328.896,7.849 328.641,7.828 C328.385,7.807 328.221,7.802 328.149,7.813 C328.076,7.823 328.024,7.833 327.993,7.844 C327.409,9.323 327.357,10.682 327.836,11.922 C326.784,13.057 326.258,14.432 326.258,16.047 C326.258,16.88 326.33,17.643 326.477,18.336 C326.622,19.029 326.821,19.623 327.071,20.118 C327.321,20.612 327.63,21.055 328,21.446 C328.369,21.836 328.755,22.154 329.157,22.399 C329.557,22.643 330.01,22.854 330.516,23.032 C331.021,23.208 331.5,23.344 331.954,23.438 C332.407,23.532 332.904,23.604 333.446,23.657 C332.591,24.24 332.164,25.166 332.164,26.438 L332.164,28.882 C331.693,28.742 331.227,28.576 330.771,28.383 C329.17,27.706 327.733,26.737 326.498,25.502 C325.264,24.266 324.294,22.829 323.618,21.229 C322.918,19.575 322.563,17.815 322.563,16 C322.563,14.184 322.918,12.425 323.618,10.77 C324.294,9.17 325.264,7.733 326.498,6.498 C327.733,5.263 329.17,4.293 330.771,3.618 C332.426,2.917 334.185,2.563 336,2.563 C337.816,2.563 339.575,2.917 341.23,3.618 C342.83,4.293 344.267,5.263 345.502,6.498 C346.737,7.733 347.707,9.17 348.383,10.77 C349.082,12.425 349.438,14.184 349.438,16 C349.438,17.815 349.082,19.575 348.383,21.229 C347.707,22.829 346.737,24.266 345.502,25.502 L345.502,25.502 Z" id="github" sketch:type="MSShapeGroup"></path>
        </g>
    </g>
</svg>