<?xml version="1.0" encoding="UTF-8" standalone="no"?>
<svg width="32px" height="32px" viewBox="0 0 32 32" version="1.1" xmlns="http://www.w3.org/2000/svg" xmlns:xlink="http://www.w3.org/1999/xlink" xmlns:sketch="http://www.bohemiancoding.com/sketch/ns">
    <!-- Generator: Sketch 3.2.2 (9983) - http://www.bohemiancoding.com/sketch -->
    <title>instagram</title>
    <desc>Created with Sketch.</desc>
    <defs></defs>
    <g id="Page-1" stroke="none" stroke-width="1" fill="none" fill-rule="evenodd" sketch:type="MSPage">
        <g id="icons" sketch:type="MSArtboardGroup" fill="#888888">
            <path d="M28,0 L4,0 C1.792,0 0,1.791 0,4 L0,28 C0,30.207 1.792,32 4,32 L28,32 C30.208,32 32,30.207 32,28 L32,4 C32,1.791 30.208,0 28,0 L28,0 Z M16,12 C19.685,12 20,16 20,16 C20.001,16 20.119,20 16,20 C11.884,20 12,16 12,16 C12,16 12.316,12 16,12 L16,12 Z M28,26 C28,27.106 27.107,28 26,28 L6,28 C4.894,28 4,27.106 4,26 L4,16 C4,14.895 4.894,14 6,14 L8.285,14 C8.117,14.643 8,15.305 8,16 C8,20.418 11.582,24 16,24 C20.418,24 24,20.418 24,16 C24,15.305 23.882,14.643 23.716,14 L26,14 C27.107,14 28,14.895 28,16 L28,26 L28,26 Z M28,8 C28,9.104 27.107,10 26,10 L24,10 C22.896,10 22,9.104 22,8 L22,6 C22,4.897 22.896,4 24,4 L26,4 C27.107,4 28,4.897 28,6 L28,8 L28,8 Z" id="instagram" sketch:type="MSShapeGroup"></path>
        </g>
    </g>
</svg>