<?xml version="1.0" encoding="UTF-8" standalone="no"?>
<svg width="32px" height="32px" viewBox="0 0 32 32" version="1.1" xmlns="http://www.w3.org/2000/svg" xmlns:xlink="http://www.w3.org/1999/xlink" xmlns:sketch="http://www.bohemiancoding.com/sketch/ns">
    <!-- Generator: Sketch 3.2.2 (9983) - http://www.bohemiancoding.com/sketch -->
    <title>linkedin</title>
    <desc>Created with Sketch.</desc>
    <defs></defs>
    <g id="Page-1" stroke="none" stroke-width="1" fill="none" fill-rule="evenodd" sketch:type="MSPage">
        <g id="icons" sketch:type="MSArtboardGroup" transform="translate(-239.000000, 0.000000)" fill="#888888">
            <path d="M242.047,0 L267.947,0 C269.632,0 270.999,1.362 270.999,3.047 L270.999,28.952 C270.999,30.637 269.632,32 267.947,32 L242.047,32 C240.364,32 239,30.637 239,28.952 L239,3.047 C239,1.362 240.364,0 242.047,0 M244.094,25.938 L248.67,25.938 L248.67,12.17 L244.094,12.17 L244.094,25.938 Z M246.123,10.721 C247.532,10.721 248.411,9.692 248.411,8.409 C248.388,7.096 247.532,6.096 246.151,6.096 C244.763,6.096 243.858,7.096 243.858,8.409 C243.858,9.692 244.735,10.721 246.094,10.721 L246.123,10.721 Z M251.647,25.938 L256.304,25.938 L256.304,18.434 C256.304,18.03 256.334,17.627 256.445,17.342 C256.776,16.538 257.522,15.706 258.759,15.706 C260.399,15.706 260.906,16.94 260.906,18.748 L260.906,25.938 L265.412,25.938 L265.412,18.233 C265.412,14.106 263.336,11.799 260.368,11.799 C257.933,11.799 256.867,13.153 256.274,14.065 L256.304,14.065 L256.304,12.119 L251.647,12.119 C251.707,13.377 251.647,25.938 251.647,25.938 Z" id="linkedin" sketch:type="MSShapeGroup"></path>
        </g>
    </g>
</svg>