<?xml version="1.0" encoding="UTF-8" standalone="no"?>
<svg width="32px" height="32px" viewBox="0 0 32 32" version="1.1" xmlns="http://www.w3.org/2000/svg" xmlns:xlink="http://www.w3.org/1999/xlink" xmlns:sketch="http://www.bohemiancoding.com/sketch/ns">
    <!-- Generator: Sketch 3.2.2 (9983) - http://www.bohemiancoding.com/sketch -->
    <title>twitter</title>
    <desc>Created with Sketch.</desc>
    <defs></defs>
    <g id="Page-1" stroke="none" stroke-width="1" fill="none" fill-rule="evenodd" sketch:type="MSPage">
        <g id="icons" sketch:type="MSArtboardGroup" transform="translate(-80.000000, 0.000000)" fill="#888888">
            <path d="M112,6.079 C110.824,6.601 109.558,6.954 108.23,7.112 C109.585,6.3 110.626,5.013 111.117,3.481 C109.848,4.232 108.443,4.779 106.947,5.073 C105.75,3.797 104.044,3 102.156,3 C98.53,3 95.59,5.939 95.59,9.565 C95.59,10.08 95.648,10.581 95.76,11.062 C90.304,10.787 85.466,8.174 82.228,4.202 C81.664,5.171 81.339,6.299 81.339,7.502 C81.339,9.78 82.498,11.79 84.259,12.967 C83.183,12.933 82.171,12.638 81.286,12.146 L81.286,12.228 C81.286,15.409 83.548,18.062 86.552,18.666 C86.001,18.815 85.421,18.896 84.823,18.896 C84.4,18.896 83.988,18.855 83.587,18.778 C84.423,21.386 86.847,23.285 89.72,23.337 C87.473,25.098 84.642,26.148 81.567,26.148 C81.037,26.148 80.514,26.117 80,26.056 C82.906,27.919 86.357,29.006 90.064,29.006 C102.14,29.006 108.744,19.002 108.744,10.326 C108.744,10.041 108.738,9.759 108.724,9.477 C110.007,8.551 111.121,7.395 112,6.079" id="twitter" sketch:type="MSShapeGroup"></path>
        </g>
    </g>
</svg>